PathFileType	3	(X/Y/Z)	RCH0000005 BBF 05.c3d
DataRate	CameraRate	NumFrames	NumMarkers	Units	OrigDataRate	OrigDataStartFrame	OrigNumFrames
100.0	100.0	10	23	mm	100.0	1	453
Frame#	Time	T2			T10			MAN			LASI			RASI			LPSI			RPSI			LPAT			LKNE			LANK			LMED			LHEE			LTOE			RPAT			RKNE			RANK			RMED			RHEE			RTOE			LTHI			LTIB			RTHI			RTIB			
		X1	Y1	Z1	X2	Y2	Z2	X3	Y3	Z3	X4	Y4	Z4	X5	Y5	Z5	X6	Y6	Z6	X7	Y7	Z7	X8	Y8	Z8	X9	Y9	Z9	X10	Y10	Z10	X11	Y11	Z11	X12	Y12	Z12	X13	Y13	Z13	X14	Y14	Z14	X15	Y15	Z15	X16	Y16	Z16	X17	Y17	Z17	X18	Y18	Z18	X19	Y19	Z19	X20	Y20	Z20	X21	Y21	Z21	X22	Y22	Z22	X23	Y23	Z23	

1	0.000	-2063.18996	48.68437	1332.52983	-2105.73467	52.47577	1114.34123	-1925.08074	41.00736	1279.73913	-1974.78766	140.91200	915.41037	-1971.49355	-51.22797	920.10528	-2117.64914	85.05333	952.73381	-2119.10676	-2.32058	950.37687	-1880.13396	120.43679	507.26421	-1948.68466	183.72520	459.24545	-2224.22046	180.36206	189.99707	-2208.51984	99.25186	184.90296	-2279.94294	145.95249	213.04309	-2183.47666	153.75144	147.25030	-1937.54045	28.69378	520.53045	-1991.68206	-38.99538	446.86207	-2076.19260	-18.74173	72.66732	-2076.95593	64.09786	78.28187	-2139.06563	5.10414	59.31845	-2026.04878	12.14865	65.61317	-1965.13834	245.95692	620.29735	-2081.17450	250.17168	349.79622	-1998.95588	-127.04534	612.64380	-2033.42804	-101.62249	297.55588	
2	0.010	-2050.71251	47.11421	1333.62704	-2093.08864	51.97779	1115.49851	-1912.55883	39.12625	1281.18431	-1961.46537	140.14621	916.90341	-1960.24998	-51.82905	920.71399	-2104.84341	85.65122	954.18798	-2107.20312	-1.60766	951.84208	-1861.31103	118.94225	512.88417	-1928.06116	182.88591	463.54390	-2188.91647	178.97795	179.56175	-2172.65189	97.96534	175.25655	-2245.49525	143.89449	198.93684	-2145.50544	153.34447	140.08232	-1934.41153	28.33660	519.83137	-1989.84100	-39.38184	447.38305	-2076.00677	-18.67877	73.60518	-2076.49761	64.19304	79.28770	-2138.75702	5.30799	60.67898	-2025.42891	12.24767	66.17271	-1944.33981	245.34293	624.88885	-2056.76651	248.72025	347.07850	-1994.19976	-127.19155	613.27031	-2032.45499	-101.74712	298.26730	
3	0.020	-2038.26640	45.56337	1334.67386	-2080.50391	51.51090	1116.60887	-1900.07588	37.25599	1282.54072	-1948.19987	139.37574	918.32711	-1949.07096	-52.43361	921.29342	-2092.09299	86.26098	955.56805	-2095.35668	-0.88151	953.24180	-1842.72518	117.44368	518.33545	-1907.70659	182.00062	467.67741	-2153.51901	177.64805	169.20536	-2136.75362	96.70372	165.70102	-2210.92081	141.93764	184.90399	-2107.51556	152.92092	133.00322	-1931.22255	27.98396	519.13935	-1987.91842	-39.76797	447.90421	-2075.81429	-18.61194	74.55165	-2076.03516	64.28905	80.29824	-2138.44538	5.52264	62.05148	-2024.83034	12.33974	66.73055	-1923.96316	244.69157	629.25685	-2032.38298	247.29098	344.27494	-1989.37890	-127.33344	613.88612	-2031.44073	-101.87513	298.97681	
4	0.030	-2025.84509	44.04909	1335.61699	-2068.00119	51.10315	1117.62234	-1887.63303	35.40537	1283.71932	-1935.00634	138.59261	919.61140	-1937.98200	-53.04784	921.81015	-2079.41226	86.89302	956.79853	-2083.58470	-0.12991	954.50809	-1824.57506	115.92398	523.44987	-1887.83319	181.02592	471.48365	-2117.87871	176.40036	159.02829	-2100.74190	95.47051	156.34336	-2176.03435	140.15729	171.03765	-2069.43165	152.44023	126.12565	-1927.89555	27.63323	518.45168	-1985.82239	-40.15556	448.42094	-2075.60556	-18.54044	75.51707	-2075.56162	64.38443	81.32134	-2138.12447	5.75299	63.45255	-2024.26820	12.41690	67.28670	-1904.34715	243.97281	633.18836	-2007.98815	245.89575	341.31364	-1984.41476	-127.47007	614.47587	-2030.33314	-102.01145	299.68191	
5	0.040	-2013.43065	42.58487	1336.41150	-2055.58439	50.77699	1118.49670	-1875.21887	33.58079	1284.64617	-1921.88350	137.78891	920.69802	-1926.99178	-53.67787	922.23530	-2066.79964	87.55567	957.81641	-2071.88849	0.65724	955.58384	-1807.01778	114.36039	528.08470	-1868.59940	179.92778	474.82618	-2081.84619	175.24819	149.13105	-2064.52717	94.26072	147.28468	-2140.65464	138.60869	157.43134	-2031.16745	151.85748	119.56110	-1924.36069	27.27779	517.76163	-1983.47548	-40.54728	448.92661	-2075.37192	-18.46469	76.50950	-2075.06982	64.47720	82.36347	-2137.78809	6.00038	64.89650	-2023.75247	12.47207	67.84110	-1885.74493	243.16852	636.50671	-1983.52397	244.54221	338.14277	-1979.24202	-127.60237	615.02437	-2029.08640	-102.16075	300.37979	
6	0.050	-2001.00083	41.18062	1337.02263	-2043.24612	50.54782	1119.19914	-1862.81610	31.78707	1285.26616	-1908.81983	136.95761	921.54320	-1916.09635	-54.32915	922.54558	-2054.24350	88.25408	958.57414	-2060.25857	1.48651	956.42520	-1790.16953	112.72565	532.12770	-1850.10951	178.68481	477.60049	-2045.30380	174.18744	139.61819	-2028.04216	93.05982	138.62305	-2104.63740	137.32210	144.18593	-1992.65541	151.12401	113.42101	-1920.56166	26.90697	517.05840	-1980.82046	-40.94639	449.41220	-2075.10605	-18.38675	77.53350	-2074.55300	64.56466	83.42880	-2137.43041	6.26174	66.39368	-2023.28700	12.49943	68.39336	-1868.31508	242.27442	639.08132	-1958.92677	243.23327	334.73788	-1973.81525	-127.73333	615.51677	-2027.66365	-102.32722	301.06690	
7	0.060	-1988.53374	39.84308	1337.42582	-2030.97187	50.42365	1119.70608	-1850.40610	30.02823	1285.54365	-1895.79826	136.09296	922.11784	-1905.28253	-55.00618	922.72312	-2041.72656	88.98955	959.03987	-2048.67854	2.36037	957.00171	-1774.10887	110.98989	535.49812	-1832.41760	177.28909	479.73553	-2008.18586	173.19569	130.59967	-1991.26020	91.84346	130.45521	-2067.89573	136.30059	131.41279	-1953.86628	150.18810	107.81638	-1916.45740	26.50663	516.32740	-1977.82143	-41.35655	449.86640	-2074.80197	-18.31045	78.58996	-2074.00537	64.64321	84.51907	-2137.04610	6.52942	67.94998	-2022.86925	12.49455	68.94281	-1852.12301	241.29915	640.83121	-1934.14051	241.96665	331.10423	-1968.11020	-127.86785	615.93872	-2026.03737	-102.51448	301.73863	
8	0.070	-1976.01059	38.57649	1337.60572	-2018.74287	50.40532	1120.00225	-1837.97172	28.30823	1285.46111	-1882.79933	135.19069	922.40634	-1894.53038	-55.71239	922.75488	-2029.22886	89.75940	959.19621	-2037.12773	3.27692	957.29508	-1758.88045	109.12336	538.14555	-1815.53370	175.74548	481.19261	-1970.48990	172.23297	122.18900	-1954.20507	90.57795	122.87647	-2030.41143	135.51989	119.23288	-1914.82061	148.99623	102.85527	-1912.02158	26.06031	515.55093	-1974.46198	-41.78141	450.27617	-2074.45476	-18.24139	79.67649	-2073.42257	64.70823	85.63407	-2136.63029	6.79158	69.56719	-2022.49072	12.45450	69.48878	-1837.14840	240.26165	641.72425	-1909.12712	240.73449	327.27520	-1962.12144	-128.01235	616.27665	-2024.18829	-102.72557	302.38949	
9	0.080	-1963.41689	37.38317	1337.55474	-2006.53797	50.48721	1120.07920	-1825.49857	26.63148	1285.01690	-1869.80324	134.24801	922.40467	-1883.81494	-56.45012	922.63160	-2016.72964	90.55705	959.03828	-2025.58292	4.22998	957.29746	-1744.49775	107.09967	540.04809	-1799.43050	174.06970	481.96312	-1932.28149	171.24406	114.49804	-1916.95424	89.22150	115.97806	-1992.23983	134.92990	107.77198	-1875.59392	147.49524	98.63763	-1907.24050	25.55091	514.70926	-1970.74141	-42.22434	450.62749	-2074.06024	-18.18682	80.78850	-2072.80186	64.75413	86.77250	-2136.17855	7.03290	71.24404	-2022.13806	12.37764	70.03097	-1823.29626	239.18739	641.77382	-1883.87477	239.52297	323.30796	-1955.85756	-128.17428	616.51799	-2022.10361	-102.96295	303.01331	
10	0.090	-1950.74274	36.26409	1337.27140	-1994.33470	50.65801	1119.93378	-1812.97545	25.00318	1284.22263	-1856.79092	133.26363	922.11824	-1873.10728	-57.22074	922.34689	-2004.20832	91.37230	958.57138	-2014.01927	5.20938	957.00950	-1730.94450	104.89946	541.21043	-1784.04998	172.28568	482.06570	-1893.69398	170.16207	107.62930	-1879.63713	87.72624	109.84232	-1953.50976	134.45757	97.15303	-1836.31698	145.63528	95.24779	-1902.11035	24.96267	513.78221	-1966.66995	-42.68798	450.90642	-2073.61453	-18.15525	81.92064	-2072.14213	64.77445	87.93318	-2135.68670	7.23575	72.97775	-2021.79463	12.26344	70.56992	-1810.40997	238.10419	641.03367	-1858.40398	238.31223	319.27684	-1949.33532	-128.36136	616.65153	-2019.77503	-103.22852	303.60390	
